<svg xmlns="http://www.w3.org/2000/svg" viewBox="0 0 44.41 39.08" width="80" height="80">
  <path d="M26.05,17.06h-7.65c-.05.18-.12.36-.14.54-.13.93-.23,1.86-.36,2.79-.38,2.64,1.56,5.03,3.77,5.68.38.11.72.13,1.07-.04.42-.21.84-.42,1.26-.63.41-.21.79-.16.99.13.22.32.11.75-.31.99-.57.33-1.18.61-1.82.94v6.62c1.31,1.09,2.63,2.17,3.91,3.27.32.27.63.41,1.06.4.79-.03,1.58-.03,2.37,0,.42.01.75-.1,1.07-.38.93-.81,1.88-1.6,2.83-2.38.36-.3.73-.57,1.14-.89v-6.66c-.18-.08-.38-.17-.58-.24-2.4-.85-4.69-3.86-4.3-6.92.34-2.67.66-5.33.99-8,.15-1.2.3-2.4.46-3.59.12-.88.41-1.13,1.32-1.14,1.16-.01,2.32,0,3.48,0,.69,0,1.38,0,2.07,0,.93.01,1.23.3,1.34,1.2.46,3.67.9,7.34,1.4,11.01.47,3.48-1.17,6.29-4.48,7.51-.09.03-.18.08-.31.14v6.67c1.3,1.09,2.62,2.16,3.9,3.27.35.3.69.42,1.13.4.64-.03,1.28-.02,1.93,0,.51.01.8.22.82.56.03.4-.33.74-.82.76-.15,0-.3,0-.44,0-13.95,0-27.9,0-41.85,0-.2,0-.4.01-.59,0C.28,39.03,0,38.74,0,38.36c0-.35.23-.58.69-.6.67-.02,1.33-.03,2,0,.47.02.84-.1,1.2-.42,1-.88,2.03-1.73,3.06-2.58.26-.22.55-.41.86-.63v-6.7c-.27-.11-.52-.21-.77-.31-2.77-1.12-4.43-3.8-4.1-6.77.34-3.09.76-6.17,1.14-9.25.1-.83.21-1.66.33-2.49.11-.75.41-1.02,1.17-1.05.44-.02.89,0,1.33,0,1.43,0,2.86,0,4.3,0,1.02,0,1.28.27,1.41,1.29.46,3.67.87,7.35,1.41,11,.51,3.41-1.86,6.54-4.35,7.38-.16.05-.31.13-.48.2v6.64c1.34,1.11,2.67,2.21,3.98,3.33.3.26.61.37,1,.36.81-.02,1.63-.03,2.44,0,.4.01.7-.12,1-.37.9-.77,1.81-1.53,2.72-2.29.4-.33.81-.64,1.26-1v-6.67c-.2-.07-.38-.14-.56-.2-2.29-.85-3.66-2.51-4.32-4.81-.24-.84-.22-1.71-.1-2.57.53-3.78,1.06-7.57,1.59-11.35.1-.7.35-.92,1.09-.93,1.93-.02,3.85-.02,5.78,0,.79,0,1.05.27,1.15,1.04.52,3.76,1.05,7.52,1.56,11.28.19,1.38-.06,2.7-.65,3.96-.07.15-.18.35-.31.39-.21.07-.49.1-.69.02-.26-.1-.4-.37-.31-.67.06-.19.15-.36.22-.55.4-1,.56-2.03.38-3.11-.15-.92-.26-1.85-.39-2.86ZM32.01,17.02c-.05.38-.1.72-.13,1.06-.07.79-.13,1.57-.21,2.36-.27,2.58,1.45,5.04,3.97,5.67.2.05.44.05.64,0,2.06-.49,3.78-2.43,3.84-4.55.04-1.49-.16-2.98-.26-4.54-.69,0-1.28.02-1.86,0-.6-.02-.86-.52-.57-1.02.14-.24.37-.3.63-.3.48,0,.97-.02,1.43-.03v-.96h-7.07c-.05.33-.09.62-.15.99.3,0,.54,0,.78,0,.57,0,1.14-.01,1.7,0,.43.02.77.37.76.75,0,.33-.27.54-.73.57-.17.01-.35,0-.52,0-.74,0-1.48,0-2.26,0ZM4.57,17.17c-.12,1.19-.21,2.3-.33,3.4-.27,2.47,1.41,4.92,3.83,5.54.22.06.49.04.72-.01,2.26-.55,4.13-2.85,3.97-5.32-.06-.86-.16-1.72-.25-2.58-.03-.33-.08-.67-.12-1.03-.42,0-.76.02-1.1,0-.45-.03-.77-.32-.76-.66,0-.33.33-.62.77-.66.26-.02.53,0,.83,0-.06-.44-.1-.78-.15-1.15h-7.09c-.04.36-.09.72-.14,1.14.96,0,1.84,0,2.73,0,.22,0,.45-.02.67.01.34.04.58.33.58.66,0,.33-.23.61-.58.65-.19.02-.39,0-.59,0-.96,0-1.92,0-2.97,0ZM19.38,8.78c-.19,1.5-.38,2.99-.58,4.51h6.79c-.2-1.52-.39-3-.58-4.51h-5.63ZM5.75,8.77c-.19,1.51-.39,2.99-.58,4.51h6.65c-.2-1.53-.39-3.01-.59-4.51h-5.48ZM32.57,13.29h6.65c-.2-1.52-.39-3-.58-4.51h-5.48c-.19,1.49-.39,2.97-.59,4.51ZM25.26,37.71c-.87-.76-1.59-1.42-2.35-2.05-.43-.36-.95-.39-1.36-.06-.79.65-1.54,1.34-2.42,2.11h6.13ZM5.51,37.71c2.22.13,5.3.08,5.87-.1-.78-.68-1.52-1.36-2.29-2-.38-.32-.78-.33-1.15-.02-.79.66-1.54,1.35-2.43,2.13ZM38.9,37.71c-.93-.81-1.73-1.52-2.55-2.2-.29-.24-.68-.2-.96.04-.8.67-1.57,1.37-2.47,2.16h5.99ZM25.89,15.66c-.06-.37-.1-.65-.15-.97h-7.08c-.05.32-.09.62-.14.97h7.37Z" fill="currentcolor"></path>
  <path d="M14.99,30.89c-.32-.17-.62-.27-.85-.46-.38-.31-.71-.68-1.05-1.04-.52-.56-.49-1.29.07-1.82.38-.35.76-.7,1.15-1.04.53-.45.91-.44,1.42.03.43.4.85.82,1.25,1.25.43.46.44.83.04,1.31-.37.46-.76.91-1.19,1.31-.21.2-.54.29-.85.45ZM14.13,28.5c.29.33.54.62.75.87.31-.28.59-.53.91-.81-.32-.31-.59-.57-.76-.73-.37.27-.66.49-.91.67Z" fill="currentcolor"></path>
  <path d="M16.16,1.63c.3,0,.53-.01.74,0,.47.03.84.35.82.68-.01.32-.36.6-.79.64-.24.02-.48,0-.77,0-.02.35-.02.64-.06.93-.06.4-.28.57-.65.55-.37-.02-.6-.22-.65-.57-.02-.15,0-.3-.01-.44,0-.12-.02-.24-.03-.42-.28-.01-.55-.02-.81-.04-.41-.04-.63-.29-.63-.67,0-.38.23-.61.65-.65.12-.01.25,0,.37,0,.12,0,.24-.02.42-.03.01-.25,0-.5.04-.73.05-.23.11-.5.27-.66.35-.36.82-.23.98.26.06.18.06.39.08.58.02.17.02.34.03.59Z" fill="currentcolor"></path>
  <path d="M28.25,6.21c-.36,0-.63.03-.9,0-.44-.05-.7-.35-.69-.73,0-.34.24-.54.72-.58.27-.02.53,0,.9,0,0-.35-.02-.64,0-.92.03-.43.22-.67.52-.7.31-.03.65.23.75.6.04.16.04.34.05.51.01.14.02.29.03.47.27.01.51.01.75.04.41.04.66.25.68.55.03.35-.28.72-.66.76-.24.03-.48,0-.76,0-.02.31-.01.55-.05.79-.06.39-.4.69-.75.69-.33,0-.53-.26-.57-.73-.02-.24-.02-.47-.03-.75Z" fill="currentcolor"></path>
  <path d="M9.78,4.01c.4,0,.71.28.7.61-.01.36-.38.7-.74.7-.34,0-.58-.3-.57-.73,0-.38.23-.59.61-.58Z" fill="currentcolor"></path>
  <path d="M23.85.69c.01-.42.27-.7.62-.67.35.03.7.41.68.75-.01.32-.36.57-.75.55-.37-.02-.56-.24-.55-.63Z" fill="currentcolor"></path>
  <path d="M30.34,28.54c.02.3-.26.58-.61.61-.35.03-.66-.2-.69-.51-.04-.35.25-.64.63-.65.33,0,.65.26.67.55Z" fill="currentcolor"></path>
</svg>