<svg xmlns="http://www.w3.org/2000/svg" viewBox="0 0 48.94 49.04" width="80" height="80">
  <path d="M1.77,35.09c0-2.09.03-4.18-.01-6.26-.02-1.2.42-2.17,1.32-2.89.68-.54,1.42-1.01,2.19-1.42.67-.36,1.38-.67,2.11-.85,1.27-.31,2.33-.95,3.32-1.77.56-.47,1.19-.87,1.74-1.34.75-.64,1.6-1.04,2.54-1.3,1.6-.45,3.2-.9,4.81-1.32.38-.1.79-.11,1.18-.08,3.01.19,6.04.27,9.03.65,2.09.26,4.12.92,6.17,1.45.85.22,1.42.85,1.64,1.69.21.8.67,1.11,1.44,1.28,1.68.38,3.32.92,4.82,1.79.7.4,1.37.9,1.98,1.44.8.71,1.15,1.64,1.15,2.72,0,4.2-.01,8.41,0,12.61,0,1.26-.54,2.22-1.48,3-1.04.86-2.23,1.42-3.48,1.88-2.95,1.09-6,1.76-9.12,2.18-3.51.47-7.03.59-10.57.51-5.1-.12-10.14-.72-14.99-2.39-1.17-.4-2.29-.95-3.39-1.52-.54-.28-1.01-.72-1.45-1.15-.65-.64-.97-1.42-.96-2.36.02-2.17,0-4.35,0-6.52ZM45.84,31.29c-1.17.6-2.19,1.2-3.27,1.66-2.53,1.09-5.22,1.61-7.93,2.01-3.78.56-7.58.74-11.4.69-4.24-.06-8.45-.43-12.6-1.37-2.6-.59-5.12-1.39-7.32-2.97-.03-.02-.1.02-.2.04v.75c0,3.05.03,6.09-.02,9.14-.02.99.35,1.71,1.14,2.21.78.5,1.59.98,2.44,1.34,4.06,1.69,8.33,2.4,12.68,2.73,3.3.25,6.6.24,9.9.02,3.99-.26,7.9-.91,11.68-2.23,1.28-.45,2.52-.99,3.64-1.77.85-.58,1.29-1.32,1.27-2.41-.05-2.99-.02-5.98-.02-8.97v-.86ZM28.7,29.18c.08-.75.15-1.45.22-2.15.15-1.52.29-3.03.46-4.55.1-.9.31-1.03,1.15-.81,1.25.33,2.5.69,3.76,1,.43.11.66.31.81.72.55,1.45,1.15,2.88,1.74,4.31.23.57.7.7,1.21.36.35-.24.45-.55.29-.95-.66-1.74-1.31-3.48-1.97-5.22-.14-.37-.4-.6-.79-.69-1.81-.44-3.59-1.07-5.42-1.3-2.99-.38-6.02-.5-9.03-.72-.3-.02-.63.01-.92.09-1.61.43-3.21.87-4.81,1.34-.51.15-1.04.33-1.47.63-1.81,1.25-3.6,2.53-5.38,3.83-.25.18-.42.51-.57.79-.19.37,0,.65.31.86.3.21.56.24.91-.01,1.82-1.34,3.65-2.65,5.5-3.96.29-.21.64-.37.98-.47,1.41-.4,2.83-.76,4.25-1.13.84-.22,1.19.06,1.11.91-.12,1.35-.26,2.7-.38,4.04-.09,1-.17,2.01-.26,3.06,2.78.28,5.48.27,8.28,0ZM38.73,24.16c.25.67.47,1.16.62,1.67.12.41.39.56.77.68.67.21,1.36.41,1.96.76,1.01.59.91,1.94-.14,2.44-.56.26-1.15.47-1.73.67-3.12,1.07-6.35,1.57-9.62,1.83-5.39.42-10.78.34-16.14-.47-2.49-.37-4.93-.97-7.26-1.94-1.08-.45-1.31-1.24-.7-2.24.1-.16.25-.35.23-.51-.05-.51-.17-1.02-.27-1.59-1.05.41-2.01.93-2.76,1.77-.8.88-.77,1.79.08,2.61.32.31.69.6,1.08.81.9.47,1.81.94,2.75,1.29,3.71,1.37,7.6,1.89,11.52,2.19,3.3.25,6.6.22,9.91.04,3.54-.19,7.02-.67,10.44-1.61,1.8-.49,3.55-1.15,5.1-2.22,1.64-1.14,1.68-2.38.09-3.6-1.71-1.31-3.71-1.97-5.94-2.57ZM37.26,29.78c.02-.06.04-.13.06-.19-1.75-.19-1.88-1.78-2.56-2.92-1.42-.22-2.83-.44-4.32-.66-.06.45-.12.84-.15,1.22-.08.84-.13,1.69-.21,2.53-.06.64-.2.77-.84.82-.39.03-.79.07-1.18.09-2.74.15-5.47.11-8.2-.24-.7-.09-.81-.22-.79-.93.01-.42.07-.84.11-1.26.06-.72.11-1.44.17-2.14-.13-.04-.19-.07-.24-.07-2.67.23-5.33.58-7.93,1.22-.32.08-.62.26-.89.45-.5.37-1.03.57-1.65.51-.34-.03-.67-.03-.93.4.38.14.73.29,1.09.42,2.87.98,5.84,1.49,8.86,1.76,5.53.49,11.05.43,16.54-.42,1.03-.16,2.04-.4,3.06-.6ZM19.55,22.62c-2.07.7-4.21.94-5.77,2.6,1.9-.21,3.74-.42,5.61-.63.05-.63.1-1.21.17-1.97ZM34.23,25.11c-.11-.53-.02-1.08-.67-1.25-.9-.24-1.79-.46-2.79-.72-.06.51-.12.97-.18,1.48,1.25.17,2.41.33,3.64.49ZM39.84,27.92c-.29.48-.55.92-.87,1.45.78-.27,1.53-.42,2.31-.88-.58-.23-1.01-.4-1.44-.57Z" fill="currentcolor"></path>
  <path d="M25.62,17.7c-2.41-.01-4.37-2.03-4.36-4.48.02-2.44,1.92-4.32,4.38-4.33,2.43,0,4.42,1.93,4.42,4.3,0,2.46-2.03,4.51-4.45,4.5ZM22.63,13.21c-.03,1.58,1.32,2.93,2.95,2.96,1.67.03,3.09-1.28,3.13-2.9.04-1.6-1.36-3-3.02-3.02-1.66-.02-3.03,1.3-3.06,2.95Z" fill="currentcolor"></path>
  <path d="M6.74,10.01c.18-.65.3-1.32.55-1.93.34-.83.74-1.65,1.19-2.42.79-1.35.58-2.64-.1-3.93-.12-.22-.26-.44-.36-.67-.17-.39-.07-.79.23-.97.27-.17.77-.08.98.25.28.45.52.93.73,1.42.58,1.36.62,2.72-.07,4.08-.45.88-.85,1.78-1.29,2.66-.64,1.28-.48,2.51.24,3.7.1.17.21.33.3.51.21.42.16.78-.13.98-.32.22-.76.13-1.02-.26-.67-1.03-1.16-2.12-1.27-3.41Z" fill="currentcolor"></path>
  <path d="M38.44,10c.18-.65.3-1.31.55-1.93.33-.81.72-1.59,1.16-2.35.86-1.51.76-2.95-.24-4.35-.07-.09-.13-.19-.17-.29-.19-.4-.1-.74.23-.96.31-.2.74-.15.96.21.32.53.6,1.09.83,1.66.5,1.26.5,2.52-.13,3.76-.43.85-.8,1.74-1.25,2.58-.64,1.18-.51,2.33.04,3.48.15.3.32.6.46.91.2.44.13.79-.16.98-.33.21-.75.11-1.01-.29-.67-1.03-1.16-2.13-1.26-3.41Z" fill="currentcolor"></path>
  <path d="M2.08.11c.25.39.49.74.7,1.1.83,1.4.94,2.89.41,4.4-.26.74-.6,1.47-1.01,2.13-1,1.63-1.02,3.24-.1,4.88.08.15.16.3.24.45.2.36.01.57-.29.76-.29.18-.53.16-.74-.12C.27,12.29-.36,10.74.22,8.97c.3-.93.64-1.88,1.14-2.72.96-1.65.97-3.25.03-4.89-.01-.02-.03-.05-.04-.07C.92.48,1.06.24,2.08.11Z" fill="currentcolor"></path>
  <path d="M17.21,4.27c-.12.4-.29,1.08-.56,1.73-.35.83-.77,1.63-1.18,2.43-.74,1.42-.59,2.77.25,4.09.11.17.23.33.3.51.13.33-.02.69-.35.85-.32.15-.62.11-.82-.2-1.09-1.72-1.71-3.51-.76-5.51.39-.82.75-1.65,1.18-2.43.85-1.53.66-2.97-.29-4.37-.38-.56-.29-.9.22-1.17.29-.15.55-.13.74.15.74,1.1,1.24,2.28,1.27,3.92Z" fill="currentcolor"></path>
  <path d="M48.94,3.75c-.06,1.21-.6,2.39-1.15,3.56-.05.1-.11.2-.16.3-1.03,1.64-1.04,3.29-.06,4.95.09.14.16.3.22.45.11.26.11.51-.16.66-.29.16-.61.23-.84-.08-.83-1.1-1.43-2.29-1.33-3.73.07-1.03.37-1.98.89-2.88.25-.44.49-.89.73-1.34.71-1.36.6-2.71-.09-4.05-.13-.25-.28-.49-.38-.75-.11-.28-.1-.57.19-.75.3-.19.59-.11.85.12.06.05.12.12.16.19.65.98,1.13,2.01,1.14,3.34Z" fill="currentcolor"></path>
</svg>