<svg xmlns="http://www.w3.org/2000/svg" viewBox="0 0 85 60.83" width="80" height="80">
  <path d="M51.67,13.87c2.77,4.27,5.37,8.27,8.13,12.53.21-.66.34-1.04.46-1.42,1.7-5.6,7.4-8.92,13.07-7.6,5.92,1.37,9.75,6.86,8.82,12.65-.78,4.85-4.03,8.46-8.45,9.32-.84.16-1.72.14-2.58.17-.79.03-1.59,0-2.6,0,.65,1.11,1.19,1.91,2.41,2.11,1.38.23,2.43,1.11,3.39,2.1,1.44,1.48,3.18,2.44,5.22,2.7,1,.13,2.03-.03,3.05,0,.52.01,1.09.03,1.53.27.65.35.99,1.02.83,1.79-.15.76-.78.99-1.46,1.06-2.01.19-3.98.03-5.92-.55-2-.59-3.8-1.52-5.33-2.95-.43-.4-.92-.77-1.44-1.03-1.26-.64-2.5-.63-3.62.32-.58.49-1.14.99-1.67,1.53-1.79,1.83-4.08,2.71-6.52,2.92-2.14.19-4.11-.75-5.83-2.06-.39-.29-.74-.63-1.12-.93-3.29-2.63-7.63-2.59-10.86.14-1.21,1.02-2.45,1.93-3.97,2.43-1.8.6-3.56.64-5.37-.06-1.69-.65-3.17-1.59-4.52-2.78-1.91-1.69-3.52-1.76-5.74-.53-3.53,1.96-7.33,3.13-11.36,3.51-.27.03-.54.04-.81,0-.85-.11-1.49-.72-1.54-1.43-.05-.69.53-1.32,1.47-1.43,2.32-.26,4.59-.69,6.75-1.6,1.24-.52,2.46-1.1,3.61-1.79,1.19-.71,2.41-1.23,3.81-1.15.82.05,1.43-.27,2.06-.75,4.76-3.64,9.54-7.26,14.31-10.88.21-.16.44-.32.64-.5,1.4-1.22,1.69-2.3.99-4.03-2.21-5.5-4.44-11-6.66-16.5-.22-.55-.42-1.11-.66-1.65-1.5-3.42,1.19-7.46,4.94-7.77.27-.02.54-.03.81-.03,8.59,0,17.17-.02,25.76.01,3.35.01,5.98,2.25,6.67,5.51.82,3.87-1.69,7.45-5.61,7.98-.64.09-1.29.08-1.94.09-3.73,0-7.45,0-11.18.01-.55,0-1.1.14-1.97.26ZM66.63,42.05c-.35-.56-.63-1.01-.92-1.46-5.33-8.04-10.67-16.09-16-24.13-1.09-1.65-1.06-2.93.1-4.44.88-1.15,2.06-1.67,3.51-1.66,3.89.02,7.77,0,11.66,0,.49,0,.98.03,1.46-.04,1.8-.25,3.12-1.64,3.21-3.33.09-1.74-1.02-3.17-2.86-3.59-.62-.14-1.28-.15-1.93-.15-5.13-.01-10.25,0-15.38,0-3.13,0-6.26-.03-9.39.01-2.46.04-3.65,1.77-2.78,4.03,2.38,6.19,4.76,12.37,7.19,18.53.53,1.35.5,2.61-.05,3.91-.57,1.34-1.55,2.31-2.69,3.16-4.02,3-8.03,6.01-12.05,9.02-.46.35-.91.72-1.51,1.21,1.17.91,2.16,1.83,3.28,2.52,2.54,1.57,4.6,1.4,7.01-.41.26-.19.51-.4.76-.6,4.52-3.54,10.19-3.61,14.82-.18.39.29.78.57,1.16.88,2.77,2.24,5.39,1.51,7.44.02,1.34-.98,2.56-2.12,3.97-3.3ZM62.86,28.29c-.03,4.41,3.79,8.28,8.2,8.3,4.54.03,8.24-3.7,8.31-8.36.06-4.55-3.65-8.13-8.44-8.14-4.37-.01-8.04,3.72-8.07,8.2Z" fill="currentcolor"></path>
  <path d="M75.4,60.64c-3.79-.13-6.99-1.18-9.68-3.63-.47-.43-1.02-.8-1.59-1.08-.93-.45-1.9-.44-2.77.17-.79.56-1.6,1.11-2.29,1.79-1.82,1.79-4.1,2.67-6.53,2.91-2.09.21-4-.71-5.71-1.94-.39-.28-.74-.62-1.12-.93-3.4-2.78-7.79-2.78-11.09.1-1.97,1.72-4.17,2.67-6.78,2.54-2.57-.13-4.81-1.1-6.74-2.8-.52-.46-1.07-.95-1.69-1.22-1.49-.65-2.96-.79-4.45.23-3.29,2.24-7.04,3.2-10.93,3.7-.48.06-.97.09-1.45.03-.62-.07-1.16-.34-1.26-1.05-.09-.65.16-1.21.74-1.5.42-.21.91-.28,1.39-.35,3.34-.48,6.6-1.22,9.4-3.2,3.11-2.2,7.68-1.43,10.24.77.97.83,2.05,1.61,3.22,2.1,2.06.87,3.9.46,5.64-1.12,3.31-3.02,7.29-3.86,11.59-2.7,1.21.33,2.32,1.11,3.43,1.75,1.02.59,1.98,1.3,2.99,1.92,1.18.71,2.49.85,3.74.32,1.27-.54,2.48-1.26,3.66-1.99.63-.39,1.17-.95,1.73-1.46,1.85-1.68,3.99-2.28,7.28-.31.46.28.87.64,1.26,1.01,2.48,2.3,5.42,3.21,8.77,2.99.46-.03,1.13-.1,1.36.16.35.38.57,1.06.5,1.56-.06.41-.56.95-.98,1.08-.64.21-1.38.13-1.87.16Z" fill="currentcolor"></path>
  <path d="M11.87,25.91c-3.4,0-6.8-.05-10.2.02-1.24.03-1.93-.65-1.57-1.95.15-.57.53-.93,1.15-.97.32-.02.65-.02.97-.02,6.37,0,12.74,0,19.11,0,.48,0,.98,0,1.44.12.68.18,1.23.97,1.14,1.59-.1.77-.66,1.1-1.36,1.15-.75.06-1.51.04-2.27.04-2.81,0-5.61,0-8.42,0Z" fill="currentcolor"></path>
  <path d="M19.15,13.93c-1.67,0-3.34,0-5.01,0-.32,0-.65.01-.97-.02-.97-.1-1.44-.49-1.48-1.18-.05-.81.54-1.52,1.44-1.68.31-.06.64-.04.97-.04,3.45,0,6.9,0,10.35,0,.43,0,.87,0,1.28.13.66.2,1.21,1.01,1.12,1.61-.12.77-.69,1.09-1.38,1.13-1.18.06-2.37.03-3.56.04-.92,0-1.83,0-2.75,0Z" fill="currentcolor"></path>
  <path d="M13.33,20.08c-1.73,0-3.46.01-5.18,0-.43,0-.87-.02-1.27-.15-.74-.24-1.13-.94-1.03-1.64.11-.73.66-.92,1.26-1.07.1-.03.21-.03.32-.03,3.94,0,7.88-.03,11.83.01,1.32.02,1.91,1.21,1.11,2.26-.27.35-.9.58-1.37.6-1.89.07-3.78.03-5.67.03Z" fill="currentcolor"></path>
  <path d="M27.59,17.18c.86,0,1.72-.05,2.58.01.91.06,1.46.54,1.52,1.17.07.76-.55,1.61-1.45,1.65-1.72.08-3.44.09-5.16,0-.92-.05-1.49-.84-1.41-1.66.06-.68.54-1.1,1.5-1.17.8-.06,1.61-.01,2.42-.01Z" fill="currentcolor"></path>
</svg>