<svg xmlns="http://www.w3.org/2000/svg" viewBox="0 0 34.5 34.48" width="80" height="80">
  <path d="M30.82,15.57c.42,0,.71,0,1,0,1.32.04,2.38.95,2.61,2.26.05.27.07.55.07.83,0,3.86,0,7.72,0,11.59,0,.27-.02.56-.09.82-.2.77-.81,1.24-1.6,1.26-.55.01-1.11,0-1.66,0-.22,0-.36.05-.49.25-1.56,2.56-5.28,2.52-6.79-.11-.02-.03-.05-.06-.1-.12-.13,0-.29-.02-.44-.02-2.54,0-5.07,0-7.61,0-.29,0-.5.04-.69.33-1.47,2.34-5.14,2.56-6.69-.1-.04-.07-.09-.13-.16-.23-.61,0-1.25,0-1.88,0-1.2,0-1.88-.66-1.88-1.88-.01-2.28,0-4.55,0-6.83,0-1.35,0-2.69,0-4.04,0-.2,0-.39,0-.66-.26,0-.49-.02-.72-.02-.55,0-1.11,0-1.66,0-.84,0-1.01.22-.89,1.14.09-.01.18-.03.27-.04.9-.09,1.7.41,1.84,1.3.11.65.08,1.34-.02,2-.11.71-.78,1.17-1.51,1.19-.74.02-1.39-.39-1.62-1.07-.07-.2-.09-.43-.1-.64,0-1.07-.02-2.14,0-3.21.01-1.09.65-1.71,1.76-1.73.71-.01,1.43,0,2.14,0,.2,0,.39,0,.49,0,.27-.49.45-.94.73-1.3.52-.65,1.26-.94,2.09-.95.59,0,1.18,0,1.8,0,.07-.28.14-.53.2-.77.28-1.06.82-1.48,1.91-1.49,1.94,0,3.88,0,5.83,0,1.53,0,3.05,0,4.58,0,.15,0,.3-.01.52-.02-.13-.22-.22-.39-.32-.56-.78-1.3-1.39-2.66-1.65-4.17C19.31,4,22.68.54,26.29.06c3.56-.47,6.93,1.66,7.9,5.11.48,1.69.33,3.37-.23,5.02-.58,1.71-1.51,3.22-2.6,4.65-.15.2-.31.41-.55.73ZM33.43,25.56v-.72c0-1.94,0-3.88,0-5.82,0-.26.01-.52-.01-.77-.08-.79-.66-1.49-1.39-1.57-.67-.07-1.35-.03-2.02-.03-.07,0-.17.03-.22.08-.34.33-.68.68-1.1,1.11.51,0,.86,0,1.22,0,.88,0,1.25.36,1.26,1.21.01,1.41.01,2.81,0,4.22,0,.23-.07.47-.18.68-.24.47-.67.55-1.16.55-3.9,0-7.81,0-11.71,0-.14,0-.28,0-.42-.02-.58-.08-1.02-.54-1.03-1.12-.01-1.49,0-2.97,0-4.46,0-.48.25-.79.68-.94.23-.08.5-.11.75-.11,2.34,0,4.68,0,7.02,0,.19,0,.37-.02.65-.04-.25-.28-.45-.47-.6-.69-.27-.39-.62-.47-1.07-.47-5.45.01-10.9,0-16.35,0-.2,0-.4,0-.59.01-.72.07-1.17.49-1.52,1.15.2.01.33.02.46.03.97.07,1.6.64,1.63,1.62.04,1.31.03,2.61,0,3.92-.01.67-.47,1.09-1.15,1.11-.31.01-.62,0-.94,0v1.07c.32,0,.59,0,.87,0,.72.02,1.15.4,1.21,1.11.03.33.02.67.01,1.01-.02.83-.39,1.19-1.21,1.2-.29,0-.58,0-.92,0,0,.64-.01,1.21,0,1.78.01.29.19.47.5.48.55,0,1.1,0,1.68,0-.16-1.22.17-2.23.98-3.09.11-.12.14-.36.15-.54.01-1.27,0-2.53,0-3.8,0-1.58,0-3.17,0-4.75,0-.7.37-1.1,1.04-1.11,1.51-.02,3.01-.02,4.52,0,.61,0,1.03.45,1.09,1.05.02.18,0,.36,0,.53,0,3.66,0,7.33,0,10.99v.7h1.04c.01-.2.03-.37.03-.55,0-.5,0-.99,0-1.49.01-.77.48-1.25,1.26-1.26,1.05-.01,2.1-.01,3.15,0,.67,0,1.11.43,1.16,1.1.02.28,0,.55,0,.83,0,.45,0,.9,0,1.35h1.15c.17-1.78.33-2.28.98-3.02.74-.85,1.69-1.3,2.81-1.33.99-.03,1.86.29,2.62.94,1.05.89,1.39,2.07,1.36,3.46.43,0,.82,0,1.21,0,.16,0,.32,0,.47-.01.33-.05.55-.26.56-.59.02-.53,0-1.06,0-1.65-.41,0-.76.01-1.11,0-.72-.03-1.12-.46-1.14-1.17,0-.28,0-.55,0-.83.02-.83.46-1.29,1.28-1.32.3-.01.59,0,.98,0ZM27.22,17.59c.23-.19.45-.36.65-.55,1.84-1.67,3.28-3.64,4.45-5.82.59-1.11.97-2.29,1.08-3.55.24-2.78-1.51-5.43-4.17-6.28-3.41-1.09-6.96.79-7.85,4.19-.37,1.4-.25,2.79.22,4.15,1.09,3.16,3.17,5.62,5.62,7.87ZM10.02,18.93v8.14c1.63-.61,3.09-.37,4.46.79v-8.93h-4.46ZM11.63,33.4c1.56,0,2.88-1.28,2.88-2.79,0-1.51-1.29-2.77-2.82-2.79-1.55-.02-2.76,1.21-2.76,2.8,0,1.57,1.18,2.78,2.71,2.78ZM24.51,30.58c-.01,1.51,1.23,2.8,2.71,2.82,1.54.01,2.84-1.23,2.88-2.73.03-1.5-1.26-2.84-2.76-2.85-1.53-.01-2.81,1.24-2.83,2.77ZM23.37,23.4c.12-.85.09-4.06-.03-4.46h-2.11c-.11.87-.07,4.04.05,4.46h2.1ZM24.53,23.38h2.18c.12-.89.08-4.05-.04-4.44h-2.13v4.44ZM27.88,18.92v4.46h2.17v-4.46h-2.17ZM17.88,23.37h2.08v-4.43h-2.08v4.43ZM17.87,31.11h3.26v-2.2h-3.26v2.2ZM5.62,23.38h1.04c0-1.3.02-2.56,0-3.82-.01-.54-.37-.71-1.03-.57v4.39ZM23.68,15.56c-.36-.76-.81-1.22-1.66-1.06-.27.05-.55,0-.83,0h-1.16v1.05h3.65ZM13.35,15.57c.78,0,1.49.02,2.2,0v-1.02h-2.2v1.03ZM18.88,14.53h-2.19v.99h2.19v-.99ZM2.13,22.27s0,0,0,0c0-.22.03-.44,0-.65-.04-.25-.18-.44-.47-.45-.24,0-.54.2-.56.45-.03.43-.03.87,0,1.3.02.29.31.5.58.48.3-.02.4-.24.44-.48.03-.21,0-.43,0-.65ZM10.14,15.54h2.07v-1.03c-.43,0-.83.01-1.22,0-.37-.01-.6.15-.7.5-.05.17-.1.33-.16.54ZM33.38,27.79v-1.01h-.98v1.01h.98ZM6.63,26.78h-1v.99h1v-.99Z" fill="currentcolor"></path>
  <path d="M23.44,7.16c0-2.13,1.73-3.84,3.85-3.83,2.18.01,3.9,1.77,3.87,3.96-.03,2.09-1.79,3.78-3.93,3.76-2.12-.01-3.8-1.74-3.79-3.89ZM27.28,4.4c-1.54,0-2.78,1.3-2.77,2.88.01,1.45,1.29,2.69,2.76,2.7,1.49,0,2.8-1.26,2.82-2.73.02-1.54-1.28-2.86-2.81-2.86Z" fill="currentcolor"></path>
  <path d="M13.3,22.26v1.11h-2.18v-1.11h2.18Z" fill="currentcolor"></path>
  <path d="M11.1,21.11v-1.15c.37,0,.74,0,1.11,0s.7,0,1.09,0v1.15h-2.2Z" fill="currentcolor"></path>
  <path d="M11.63,32.33c-.91,0-1.64-.8-1.63-1.75.01-.91.77-1.68,1.64-1.69.89,0,1.69.82,1.68,1.73,0,.93-.79,1.72-1.69,1.71ZM12.23,30.59c-.01-.26-.35-.53-.63-.51-.28.02-.53.29-.53.54.01.27.33.53.62.5.27-.02.54-.3.53-.54Z" fill="currentcolor"></path>
  <path d="M27.28,32.32c-.87,0-1.69-.84-1.7-1.72,0-.87.86-1.73,1.7-1.71.85.02,1.63.84,1.62,1.73,0,.9-.78,1.72-1.62,1.71ZM27.23,31.13c.27,0,.57-.26.58-.5.02-.26-.31-.56-.59-.55-.25.01-.45.25-.44.53,0,.29.2.52.46.52Z" fill="currentcolor"></path>
</svg>