<svg xmlns="http://www.w3.org/2000/svg" viewBox="0 0 26.61 26.58" width="80" height="80">
  <path d="M19.53,16.87c0-.21,0-.36,0-.51,0-1.1,0-2.2,0-3.3,0-.74.11-.9.85-1.14,0-.15,0-.32,0-.49,0-3.27,0-6.53,0-9.8,0-.22,0-.45.06-.65C20.59.41,21.14,0,21.69,0c.56,0,1.09.39,1.25.97.06.22.07.46.07.7,0,3.24,0,6.47,0,9.71v.54c.06.03.11.05.17.07.5.18.67.4.68.94.01.53,0,1.07,0,1.6,0,.61,0,1.23,0,1.84,0,.15,0,.31,0,.51.29,0,.54,0,.79,0,1.22.01,1.94.72,1.95,1.93,0,1.34,0,2.67,0,4.01,0,.28-.03.57-.13.83-.26.67-.77,1.05-1.49,1.13-.19.02-.38.02-.63.03,0,.23,0,.46,0,.69,0,.17,0,.35,0,.52-.03.4-.19.56-.6.57-.8,0-1.6,0-2.4,0-.13,0-.25,0-.38,0-.41-.02-.56-.17-.58-.58-.01-.39,0-.78,0-1.19H6.23c0,.35,0,.69,0,1.03,0,.59-.15.73-.71.74-.85,0-1.7,0-2.55,0-.57,0-.69-.13-.7-.69,0-.34,0-.69,0-1.07-.18-.01-.33-.02-.49-.03-1.07-.05-1.76-.74-1.77-1.81-.02-1.44.02-2.89-.01-4.33-.02-.83.69-1.72,1.68-1.76.19,0,.38,0,.57,0,5.56,0,11.13,0,16.69,0h.6ZM13.32,23.84c3.77,0,7.54,0,11.32,0,.72,0,1.03-.43,1.03-1-.01-1.38,0-2.76,0-4.15,0-.71-.3-.99-1.02-.99-7.56,0-15.12,0-22.68,0-.73,0-1,.27-1.01.99,0,1.02,0,2.04,0,3.06,0,.41,0,.82,0,1.23.02.54.32.82.86.85.13,0,.25,0,.38,0,3.71,0,7.42,0,11.13,0ZM23,12.85h-2.59v3.99h2.59v-3.99ZM22.16,11.95c0-.15.02-.24.02-.34,0-3.34,0-6.68,0-10.02,0-.47-.14-.65-.48-.65-.34,0-.46.16-.46.66,0,3.31,0,6.62,0,9.92,0,.14.02.27.03.42h.9ZM23.48,24.81h-2.22v.82c.76,0,1.48.01,2.22,0v-.81ZM3.14,25.58c.54.1,1.9.08,2.21-.02v-.74h-2.21v.76Z" fill="currentcolor"></path>
  <path d="M8.98,5.93c-2.57.05-4.96.98-6.98,2.83-.08.07-.16.15-.24.23-.26.22-.5.22-.7,0-.19-.21-.2-.44.05-.66.48-.43.96-.87,1.48-1.23,2.12-1.47,4.47-2.21,7.05-2.08,2.96.14,5.45,1.35,7.55,3.41.21.2.22.34.06.53-.17.22-.4.27-.62.12-.1-.07-.19-.16-.28-.25-2.03-1.89-4.44-2.85-7.38-2.89Z" fill="currentcolor"></path>
  <path d="M9.45,7.82c1.87.04,3.79.75,5.43,2.17.12.1.24.21.34.32.22.24.23.45.02.66-.2.21-.43.21-.66,0-.32-.28-.61-.59-.95-.84-3-2.17-6.96-1.92-9.75.61-.09.08-.18.18-.28.26-.24.18-.48.16-.66-.06-.16-.2-.15-.36.07-.57,1.71-1.66,3.74-2.55,6.45-2.55Z" fill="currentcolor"></path>
  <path d="M8.93,10.54c1.81.07,3.16.66,4.29,1.75.1.1.19.26.2.4.03.31-.31.52-.59.37-.12-.06-.22-.17-.33-.27-1.9-1.72-4.73-1.74-6.66-.05-.07.06-.15.12-.21.19-.22.24-.5.22-.7.02-.21-.22-.2-.44.06-.69.69-.66,1.48-1.18,2.4-1.43.57-.16,1.17-.23,1.53-.29Z" fill="currentcolor"></path>
  <path d="M9.03,13.38c.96.02,1.7.29,2.3.88.24.23.25.44.06.66-.19.21-.4.23-.6.02-.31-.31-.65-.53-1.08-.63-.77-.18-1.46-.02-2.07.49-.1.08-.18.18-.29.24-.17.09-.34.08-.48-.06-.13-.13-.19-.3-.09-.47.06-.11.14-.21.23-.29.6-.56,1.32-.82,2.02-.83Z" fill="currentcolor"></path>
  <path d="M4.02,21.2c-.72,0-1.36-.59-1.36-1.27,0-.7.68-1.37,1.4-1.36.65,0,1.32.69,1.33,1.35,0,.67-.65,1.28-1.36,1.28ZM4.02,20.34c.19,0,.41-.25.41-.45,0-.2-.19-.37-.4-.38-.25,0-.44.17-.42.4.01.23.22.44.42.43Z" fill="currentcolor"></path>
  <path d="M11.11,18.57c.67,0,1.36.72,1.34,1.38-.02.67-.67,1.26-1.39,1.25-.71,0-1.34-.62-1.33-1.3.01-.69.68-1.34,1.38-1.33ZM11.12,20.35c.21,0,.39-.2.38-.44,0-.21-.17-.38-.39-.39-.24-.01-.44.16-.44.38,0,.24.21.45.45.45Z" fill="currentcolor"></path>
  <path d="M8.87,19.9c0,.74-.59,1.3-1.33,1.3-.75,0-1.32-.57-1.3-1.32.02-.72.63-1.33,1.33-1.32.74.01,1.31.6,1.3,1.33ZM7.55,19.51c-.27,0-.45.15-.46.36,0,.24.19.46.43.47.25.01.5-.22.49-.47,0-.21-.2-.37-.46-.37Z" fill="currentcolor"></path>
  <path d="M15.69,20.35c-.58,0-1.16,0-1.74,0-.12,0-.26,0-.37-.04-.19-.07-.3-.22-.29-.44.01-.2.16-.3.33-.35.1-.03.22-.02.33-.02,1.19,0,2.38,0,3.57,0,.08,0,.16,0,.23,0,.26.03.38.16.38.39,0,.25-.13.42-.38.44-.25.02-.5,0-.75,0-.44,0-.88,0-1.32,0Z" fill="currentcolor"></path>
  <path d="M20.28,20.35c-.17,0-.34,0-.52,0-.31-.02-.48-.19-.47-.46.01-.23.15-.37.44-.38.37-.01.75-.02,1.13,0,.28.01.41.17.4.42-.01.25-.15.4-.41.42-.19.01-.37,0-.56,0,0,0,0,0,0,0Z" fill="currentcolor"></path>
</svg>